<svg xmlns="http://www.w3.org/2000/svg" version="1.1" xmlns:xlink="http://www.w3.org/1999/xlink" xmlns:svgjs="http://svgjs.dev/svgjs" width="357" height="306"><svg version="1.1" viewBox="0 0 1428 1224" width="357" height="306" xmlns="http://www.w3.org/2000/svg">
<path transform="translate(646,51)" d="m0 0h51l37 3 36 5 37 7 30 8 36 12 29 12 30 14 19 10 19 11 20 13 20 14 18 14 10 8 14 12 12 11 32 32 9 11 10 11 11 14 12 16 18 27 13 21 15 28 12 25 11 27 9 25 10 34 6 26 6 33 4 35 3 45v25l-2 37-5 39-8 39-9 33-12 36-8 20-13 29-12 22-7 14-12 19-7 10-5 1-49-11-85-17-49-9-35-6-2-1-1-391-10-8-17-12-18-13-13-9-18-13-14-10-17-12-18-13-17-12-15-11-2-1v482l-3 1-23-3-2-7v-559l-1-3-21-14-2-1v581l-21-1-6-1-1-4v-589l-10-8-11-7-3-1v606h-22l-5-1-1-32v-589l-5-2-14-10-3-2-1 632-5 2-22-2-1-1-1-646-3-3-14-9-6-4v621l-1 40h-17l-9-1-1-3v-329l-11 7-16 11-20 14-17 12-23 16-18 13-3 2-1 54v199l-1 1-98 1-50 1-52 2-58 3h-10l-4-6-12-29-9-26-9-29-8-36-6-38-3-32-1-18v-62l3-29 4-29 7-35 8-30 14-41 12-29 16-33 12-22 13-21 15-22 10-14 14-17 11-13 9-10 7-8 9-9 5-6 8-7 16-15 11-9 13-11 16-12 17-12 23-15 26-15 32-16 23-10 28-11 33-10 28-7 31-6 34-5z" fill="#369BF1"></path>
<path transform="translate(157,869)" d="m0 0 22 1 56 6 62 8 70 10 57 10 77 15 57 12 64 16 55 14 54 16 20 6 64 21 50 18 48 18 36 15 30 13 29 13 4 3-18 13-22 14-26 15-19 10-24 11-29 12-36 12-30 8-34 7-31 5-21 2-20 1h-45l-28-1-44-5-35-6-38-9-37-12-29-12-26-12-22-11-42-26-25-17-14-11-17-14-10-9-16-15-23-23-7-8-12-14-9-11-14-19-13-18-11-17-9-15-13-24-6-14z" fill="#369BF1"></path>
</svg><style>@media (prefers-color-scheme: light) { :root { filter: none; } }
@media (prefers-color-scheme: dark) { :root { filter: none; } }
</style></svg>